<?xml version="1.0" encoding="UTF-8"?>
<svg id="Layer_2" data-name="Layer 2" xmlns="http://www.w3.org/2000/svg" xmlns:xlink="http://www.w3.org/1999/xlink" viewBox="0 0 550.42 664.42">
  <defs>
    <style>
      .cls-1 {
        fill: url(#linear-gradient-2);
      }

      .cls-2 {
        clip-path: url(#clippath-2);
      }

      .cls-3 {
        clip-path: url(#clippath-1);
      }

      .cls-4 {
        clip-path: url(#clippath);
      }

      .cls-5 {
        clip-rule: evenodd;
        fill: none;
      }

      .cls-6 {
        fill: url(#linear-gradient-3);
      }

      .cls-7 {
        fill: url(#linear-gradient);
      }
    </style>
    <clipPath id="clippath">
      <polygon class="cls-5" points="341.76 0 550.42 0 550.42 208.66 447.69 208.66 447.69 102.74 341.76 102.74 341.76 0"/>
    </clipPath>
    <linearGradient id="linear-gradient" x1="3.9" y1="512.1" x2="833.55" y2="-252.97" gradientUnits="userSpaceOnUse">
      <stop offset="0" stop-color="#ec1c24"/>
      <stop offset="1" stop-color="#fff100"/>
    </linearGradient>
    <clipPath id="clippath-1">
      <path class="cls-5" d="m348.96,348.96c-40.73,40.73-106.76,40.73-147.49,0-40.73-40.73-40.73-106.76,0-147.49s106.76-40.73,147.49,0c40.73,40.73,40.73,106.76,0,147.49"/>
    </clipPath>
    <linearGradient id="linear-gradient-2" x1="10.53" y1="519.29" x2="840.18" y2="-245.78" xlink:href="#linear-gradient"/>
    <clipPath id="clippath-2">
      <path class="cls-5" d="m397.17,397.17c-67.38,67.38-176.54,67.38-243.92,0-67.38-67.38-67.38-176.54,0-243.92,32.52-32.52,75.97-50.52,121.96-50.52V0c-70.43,0-140.87,26.87-194.6,80.61-107.48,107.48-107.48,281.73,0,389.21l194.6,194.6,194.6-194.6c53.74-53.74,80.61-124.17,80.61-194.6h-102.74c0,45.99-18,89.44-50.52,121.96"/>
    </clipPath>
    <linearGradient id="linear-gradient-3" x1="-48.65" y1="638.5" x2="696.55" y2="-96.76" gradientUnits="userSpaceOnUse">
      <stop offset="0" stop-color="#021b8c"/>
      <stop offset="1" stop-color="#15aff7"/>
    </linearGradient>
  </defs>
  <g id="Layer_1-2" data-name="Layer 1">
    <g>
      <g class="cls-4">
        <rect class="cls-7" x="341.76" width="208.66" height="208.66"/>
      </g>
      <g class="cls-3">
        <rect class="cls-1" x="160.74" y="160.74" width="228.95" height="228.95"/>
      </g>
      <g class="cls-2">
        <rect class="cls-6" x="-26.87" width="577.29" height="664.42"/>
      </g>
    </g>
  </g>
</svg>